<svg width="706" height="193" viewBox="0 0 706 193" fill="none" xmlns="http://www.w3.org/2000/svg">
<path fill-rule="evenodd" clip-rule="evenodd" d="M50.5859 44.4336H22.3633V156.445C22.3633 159.701 21.8424 162.337 20.8008 164.355C19.8242 166.439 18.3594 167.969 16.4062 168.945C14.4531 169.922 12.0117 170.41 9.08203 170.41C7.58464 170.41 6.11979 170.312 4.6875 170.117C3.1901 169.987 1.66016 169.792 0.0976562 169.531L0 191.113C2.47396 191.699 4.88281 192.122 7.22656 192.383C9.50521 192.643 11.849 192.773 14.2578 192.773C21.9401 192.773 28.4831 191.374 33.8867 188.574C39.2904 185.775 43.4245 181.673 46.2891 176.27C49.1536 170.866 50.5859 164.258 50.5859 156.445V44.4336ZM24.4141 6.73828C21.5495 9.40755 20.1172 12.793 20.1172 16.8945C20.1172 20.9961 21.5495 24.3815 24.4141 27.0508C27.3438 29.7201 31.1849 31.0547 35.9375 31.0547C40.7552 31.0547 44.5964 29.7201 47.4609 27.0508C50.3255 24.3815 51.7578 20.9961 51.7578 16.8945C51.7578 12.793 50.3255 9.40755 47.4609 6.73828C44.5964 4.06901 40.7552 2.73438 35.9375 2.73438C31.1849 2.73438 27.3438 4.06901 24.4141 6.73828ZM85.0742 83.3838V0H56.9492V150.098H85.0742V117.727L95.201 107.48L122.477 150.098H147.785H154.898H173.078L174.396 138.827C177.354 142.757 180.886 145.863 184.992 148.145C189.745 150.749 195.344 152.051 201.789 152.051C208.69 152.051 214.68 150.749 219.758 148.145C224.901 145.475 229.198 141.764 232.648 137.012C236.099 132.194 238.638 126.497 240.266 119.922C241.958 113.346 242.805 106.12 242.805 98.2422V96.1914C242.805 88.3138 241.958 81.1198 240.266 74.6094C238.638 68.0339 236.099 62.3698 232.648 57.6172C229.263 52.7995 224.966 49.0885 219.758 46.4844C214.615 43.8151 208.56 42.4805 201.594 42.4805C195.214 42.4805 189.68 43.7826 184.992 46.3867C181.565 48.291 178.537 50.7696 175.91 53.8227V0.0976562H147.785V44.4336H117.887L90.4453 76.5625L85.0742 83.3838ZM147.785 48.8706L113.297 88.2012L147.785 139.514V48.8706ZM175.91 118.732V75.8841C176.55 74.4634 177.299 73.1596 178.156 71.9727C179.914 69.6289 182.128 67.806 184.797 66.5039C187.466 65.2018 190.721 64.5508 194.562 64.5508C198.599 64.5508 201.887 65.3971 204.426 67.0898C207.03 68.7826 209.081 71.0938 210.578 74.0234C212.076 76.888 213.117 80.2409 213.703 84.082C214.354 87.8581 214.68 91.8945 214.68 96.1914V98.2422C214.68 102.799 214.387 107.031 213.801 110.938C213.215 114.779 212.173 118.132 210.676 120.996C209.243 123.861 207.225 126.074 204.621 127.637C202.017 129.199 198.729 129.98 194.758 129.98C189.68 129.98 185.546 128.874 182.355 126.66C179.599 124.65 177.451 122.008 175.91 118.732ZM272.41 80.4031V150.098H244.285V44.4336H270.75L271.683 57.3809C271.95 56.8975 272.225 56.4229 272.508 55.957C275.177 51.6602 278.432 48.3398 282.273 45.9961C286.115 43.6523 290.509 42.4805 295.457 42.4805C297.02 42.4805 298.615 42.6107 300.242 42.8711C301.87 43.0664 303.204 43.3594 304.246 43.75L303.907 61.8785C304.896 60.46 305.959 59.1046 307.094 57.8125C311.326 52.9948 316.534 49.2513 322.719 46.582C328.904 43.8477 336 42.4805 344.008 42.4805C352.016 42.4805 359.145 43.8477 365.395 46.582C371.645 49.2513 376.885 52.9948 381.117 57.8125C385.414 62.6302 388.669 68.3268 390.883 74.9023C392.051 78.3373 392.91 81.9445 393.462 85.7238C378.559 91.5406 368 106.037 368 123C368 130.498 370.063 137.513 373.652 143.511C371.153 145.266 368.433 146.778 365.492 148.047C359.307 150.716 352.211 152.051 344.203 152.051C336.195 152.051 329.066 150.716 322.816 148.047C316.632 145.378 311.391 141.634 307.094 136.816C302.862 131.934 299.639 126.237 297.426 119.727C295.212 113.151 294.105 106.022 294.105 98.3398V96.2891C294.105 88.5417 295.212 81.4128 297.426 74.9023C298.069 72.9923 298.797 71.1565 299.61 69.3948C299.339 69.3745 299.061 69.3549 298.777 69.3359C296.889 69.1406 295.164 69.043 293.602 69.043C289.63 69.043 286.18 69.5638 283.25 70.6055C280.385 71.582 277.977 73.0469 276.023 75C274.536 76.5385 273.332 78.3395 272.41 80.4031ZM442.137 143.86C444.082 145.467 446.181 146.863 448.434 148.047C453.577 150.716 459.436 152.051 466.012 152.051C472.262 152.051 477.73 150.749 482.418 148.145C486.549 145.849 490.124 142.745 493.143 138.832L494.527 150.098H520.016V0.0976562H491.695V54.0419C489 50.8769 485.907 48.3252 482.418 46.3867C477.796 43.7826 472.392 42.4805 466.207 42.4805C459.632 42.4805 453.772 43.7826 448.629 46.3867C443.486 48.9909 439.156 52.6693 435.641 57.4219C432.125 62.1745 429.456 67.8711 427.633 74.5117C426.556 78.3969 425.797 82.5435 425.356 86.9514C438.755 93.4144 448 107.128 448 123C448 130.644 445.856 137.787 442.137 143.86ZM491.695 75.9563C491.001 74.5004 490.187 73.1725 489.254 71.9727C487.496 69.6289 485.283 67.806 482.613 66.5039C480.009 65.2018 476.917 64.5508 473.336 64.5508C469.69 64.5508 466.565 65.3971 463.961 67.0898C461.357 68.7174 459.241 70.9635 457.613 73.8281C456.051 76.6927 454.879 80.0781 454.098 83.9844C453.382 87.8255 453.023 91.9922 453.023 96.4844V98.5352C453.023 102.897 453.349 106.966 454 110.742C454.716 114.518 455.855 117.871 457.418 120.801C459.046 123.665 461.129 125.911 463.668 127.539C466.272 129.102 469.43 129.883 473.141 129.883C477.958 129.883 481.93 128.809 485.055 126.66C487.88 124.659 490.094 121.992 491.695 118.659V75.9563ZM322.23 98.3398V96.2891C322.23 91.9922 322.621 87.9557 323.402 84.1797C324.184 80.3385 325.421 76.9531 327.113 74.0234C328.871 71.0286 331.117 68.6849 333.852 66.9922C336.651 65.2995 340.036 64.4531 344.008 64.4531C347.979 64.4531 351.365 65.2995 354.164 66.9922C356.964 68.6849 359.21 71.0286 360.902 74.0234C362.66 76.9531 363.93 80.3385 364.711 84.1797C365.557 87.9557 365.98 91.9922 365.98 96.2891V98.3398C365.98 102.767 365.557 106.901 364.711 110.742C363.93 114.583 362.693 117.969 361 120.898C359.307 123.763 357.061 126.009 354.262 127.637C351.462 129.264 348.109 130.078 344.203 130.078C340.167 130.078 336.749 129.264 333.949 127.637C331.15 126.009 328.871 123.763 327.113 120.898C325.421 117.969 324.184 114.583 323.402 110.742C322.621 106.901 322.23 102.767 322.23 98.3398ZM552.551 148.145C559.061 150.749 566.418 152.051 574.621 152.051C581.457 152.051 587.544 151.139 592.883 149.316C598.221 147.428 602.779 145.02 606.555 142.09C610.396 139.16 613.423 136.1 615.637 132.91L601.965 118.066C598.775 122.103 594.966 125.13 590.539 127.148C586.177 129.102 581.457 130.078 576.379 130.078C572.277 130.078 568.599 129.362 565.344 127.93C562.154 126.497 559.419 124.479 557.141 121.875C554.927 119.271 553.202 116.178 551.965 112.598C551.277 110.496 550.791 108.283 550.507 105.957H617.98V94.2383C617.98 86.4909 616.971 79.4596 614.953 73.1445C612.935 66.7643 609.94 61.2956 605.969 56.7383C602.062 52.181 597.212 48.6654 591.418 46.1914C585.624 43.7174 578.983 42.4805 571.496 42.4805C563.814 42.4805 556.913 43.8151 550.793 46.4844C544.673 49.0885 539.465 52.832 535.168 57.7148C530.936 62.5977 527.681 68.3594 525.402 75C523.124 81.6406 521.984 88.9648 521.984 96.9727V100.879C521.984 107.91 523.189 114.551 525.598 120.801C528.007 126.986 531.457 132.422 535.949 137.109C540.507 141.797 546.04 145.475 552.551 148.145ZM550.849 87.207C550.999 86.139 551.176 85.0973 551.379 84.082C552.225 80.1107 553.462 76.6602 555.09 73.7305C556.783 70.8008 558.964 68.5221 561.633 66.8945C564.302 65.2669 567.492 64.4531 571.203 64.4531C575.565 64.4531 579.146 65.3646 581.945 67.1875C584.745 69.0104 586.828 71.4844 588.195 74.6094C589.628 77.6693 590.344 81.1523 590.344 85.0586V87.207H550.849ZM651.98 150.098H642.605L606.961 44.4336H636.453L656.258 116.176L676.004 44.4336H705.398L669.754 150.098H660.477H651.98Z" fill="white"/>
<mask id="mask0_39_8" style="mask-type:alpha" maskUnits="userSpaceOnUse" x="376" y="91" width="64" height="64">
<circle cx="408" cy="123" r="32" fill="black"/>
</mask>
<g mask="url(#mask0_39_8)">
<rect x="376" y="91" width="64" height="64" fill="black"/>
<rect x="376" y="91" width="64" height="64" fill="#FACC14"/>
<!-- <rect x="376" y="91" width="64" height="64" fill="white"/> -->
</g>
</svg>
