<?xml version="1.0" standalone="no"?>
<!DOCTYPE svg PUBLIC "-//W3C//DTD SVG 20010904//EN"
 "http://www.w3.org/TR/2001/REC-SVG-20010904/DTD/svg10.dtd">
<svg version="1.0" xmlns="http://www.w3.org/2000/svg"
 width="867.000000pt" height="867.000000pt" viewBox="0 0 867.000000 867.000000"
 preserveAspectRatio="xMidYMid meet">
<metadata>
Created by potrace 1.14, written by Peter Selinger 2001-2017
</metadata>
<g transform="translate(0.000000,867.000000) scale(0.100000,-0.100000)"
fill="#000000" stroke="none">
<path d="M4088 8665 c-1 -1 -48 -6 -103 -9 -55 -4 -111 -9 -125 -11 -14 -2
-50 -7 -80 -10 -30 -3 -62 -8 -70 -10 -8 -2 -35 -7 -60 -10 -65 -9 -190 -32
-268 -51 -37 -8 -74 -17 -82 -19 -60 -13 -235 -63 -335 -97 -982 -328 -1813
-995 -2351 -1888 -150 -250 -303 -583 -394 -860 -33 -100 -84 -275 -95 -328
-2 -9 -11 -48 -20 -87 -9 -38 -18 -81 -20 -95 -2 -14 -11 -59 -19 -100 -14
-75 -19 -106 -31 -210 -4 -30 -9 -66 -11 -80 -26 -173 -25 -703 2 -944 10 -88
43 -309 54 -356 36 -167 96 -397 129 -497 39 -117 117 -328 129 -348 4 -5 7
-16 8 -22 4 -27 185 -384 250 -493 59 -99 140 -223 218 -335 46 -66 214 -275
285 -354 126 -141 359 -368 456 -442 17 -13 36 -29 43 -36 54 -52 423 -313
443 -313 5 0 9 -4 9 -10 0 -5 4 -10 9 -10 5 0 51 -25 102 -56 98 -58 388 -203
497 -249 167 -69 475 -173 597 -200 11 -3 70 -16 130 -30 127 -29 128 -29 260
-50 122 -20 175 -26 355 -42 169 -15 655 -8 802 11 57 8 122 16 163 21 35 5
80 12 180 31 341 63 724 187 1032 335 44 21 86 39 92 39 6 0 11 3 11 8 0 4 20
15 45 26 65 26 382 218 503 304 319 227 591 478 837 772 44 53 89 108 100 124
11 15 25 33 30 40 6 6 22 27 35 46 13 19 27 37 30 40 3 3 10 12 15 21 6 9 40
60 76 115 240 362 423 755 542 1165 51 176 83 308 103 424 1 11 7 45 13 75 27
154 31 185 47 375 16 187 9 724 -12 828 -2 10 -6 45 -9 76 -4 31 -8 63 -10 71
-2 8 -7 38 -10 65 -4 28 -8 57 -10 65 -3 8 -7 33 -11 55 -3 22 -13 69 -21 105
-8 36 -16 72 -18 80 -11 54 -31 128 -57 214 -16 54 -31 106 -33 115 -4 18 -70
205 -84 236 -5 11 -28 67 -52 125 -57 138 -163 351 -241 484 -35 59 -67 115
-73 124 -56 99 -272 393 -386 525 -183 211 -426 444 -612 587 -51 39 -99 76
-107 83 -8 7 -58 42 -110 78 -389 267 -809 467 -1240 593 -69 20 -134 38 -145
40 -11 2 -47 11 -80 20 -73 18 -187 42 -275 56 -36 5 -76 12 -90 14 -36 7
-106 15 -180 21 -36 4 -76 9 -90 11 -28 6 -606 15 -612 9z"/>
</g>
</svg>
